# xmcd CD database file
#
# Track frame offsets:
#	150
#	35557
#	60491
#	90474
#	113704
#	140965
#	183638
#	216162
#	250885
#	294714
#
# Disc length: 4253 seconds
#
# Revision: 1
# Processed by: cddbd v1.5.2PL0 Copyright (c) Steve Scherf et al.
# Submitted via: CDex 1.51
#
DISCID=9a109b0a
DTITLE=Sarah Lark - Der Ruf des Kiwis CD02
DYEAR=2009
DGENRE=Hörbuch
TTITLE0=Der Ruf des Kiwis CD02-01
TTITLE1=Der Ruf des Kiwis CD02-02
TTITLE2=Der Ruf des Kiwis CD02-03
TTITLE3=Der Ruf des Kiwis CD02-04
TTITLE4=Der Ruf des Kiwis CD02-05
TTITLE5=Der Ruf des Kiwis CD02-06
TTITLE6=Der Ruf des Kiwis CD02-07
TTITLE7=Der Ruf des Kiwis CD02-08
TTITLE8=Der Ruf des Kiwis CD02-09
TTITLE9=Der Ruf des Kiwis CD02-10
EXTD=YEAR: 2009
EXTT0=
EXTT1=
EXTT2=
EXTT3=
EXTT4=
EXTT5=
EXTT6=
EXTT7=
EXTT8=
EXTT9=
PLAYORDER=
